<svg xmlns="http://www.w3.org/2000/svg" viewBox="-2 0 36 32">
    <path fill="currentColor" fill-rule="evenodd" d="M25.589 31.991v-12.21c0-2.899-1.32-4.879-3.86-4.879-1.937 0-3.242 1.334-3.754 2.622-.182.462-.064 1.025-.064 1.667V31.99h-6.398V16.632c0-2.81-.906-5.922-1.279-6.4h6.398v2.56l.319.035c.92-1.597 3.185-3.611 6.968-3.611 4.608 0 8.068 3.108 8.068 9.735v13.04zM-.003 10.232h7.678V31.99l-7.678.001zm3.716-3.248C1.503 6.984.07 5.42.07 3.486c0-1.979 1.479-3.498 3.74-3.498 2.255 0 3.639 1.519 3.686 3.498 0 1.934-1.431 3.498-3.783 3.498"/>
</svg>
