<svg xmlns="http://www.w3.org/2000/svg" width="50" height="50">
    <path d="m26.626 16.65-4.182-4.196 4.707-3.29" fill="none" stroke="currentColor" stroke-linecap="round" stroke-linejoin="round" stroke-width="2"/>
    <path d="M36.383 32.02a13.465 13.465 0 0 1-7.49 6.084l-.015.005-.107.034-.011.004q-.58.183-1.172.314l-.012.002-.11.024-.015.003a13.465 13.465 0 0 1-9.529-1.524s-.006-.003-.01-.005l-.852-.492-.042-.025-.364-.21-.008-.005-.076-.055-.295-.17-.008-.005-.008-.004-.008-.005a7.951 7.951 0 0 1-.128-.103l-.009-.005-.009-.005-.008-.005-.008-.004-.008-.005-.06-.035-.053-.03-.016-.01-.008-.004-.008-.004-.007-.005-.008-.004-.008-.005-.008-.004-.008-.005q-.103-.087-.204-.176l-.009-.005-.007-.004-.01-.005-.008-.005-.008-.005-.01-.005-.008-.005-.008-.005-.01-.005-.008-.005-.008-.005-.01-.005-.008-.005-.008-.005-.009-.005-.023-.02a13.527 13.527 0 0 1-3.37-15.34l.094-.163.1-.22.163-.282.066-.132.127-.22a1 1 0 0 1 1.766.941 11.515 11.515 0 0 0 13.172 16.314 11.44 11.44 0 0 0 6.992-5.365 11.518 11.518 0 0 0-10.497-17.261 1 1 0 1 1-.091-1.998 13.467 13.467 0 0 1 2.72.15l.028.003.051.009.021.003.05.008.03.003.052.01.034.002.017.01.022.004.006.004h.026l.028.004.024.005.005.003.021.004.02.004.006.003.02.004.032.002.005.003.02.004.02.004.006.003h.027l.005.002.01.006.005.003.02.005.005.003.02.004.019.004.005.003.01.006.006.003.005.003.01.006.006.003.018.004.005.003.01.005.005.003.067-.016.005.002.01.006.004.003h.033l.005.003.011.006.005.003.006.003.01.006.004.003.009.005.004.002.005.003.008.005.005.002.007.004.004.003.008.004.004.003.008.004.005.003.005.003.01.006.007.004.02.011.006.004.01.006.008.004.018.011.007.004.011.006.007.004.06.035.008.004.004.003.009.005.016.01.007.003.015.009.007.004.014.008.007.004.025.015.007.004.012.006.007.004.019.011.006.004.015.009.007.004.014.008.005.003.016.009.007.004.015.009.005.003.017.01.007.003.015.009.007.004.02.011.005.003.01.007.007.003.02.012.007.004.019.011.007.004.015.009.006.003.016.01.007.003.016.01.006.003.015.009.007.004.108.062.007.004.041.024.007.004.037.021.007.004.064.037.007.004.034.02.007.004.038.022.007.004.015.009.007.004.016.009.007.004.064.037.007.004.038.022.007.004.038.022.007.004.038.022.007.004.507.293.542.312.045.026.045.026.12.07.214.123.093.054.08.046.092.053.046.027.074.043.306-.53.093.054.075.043.052.03.036.02.009.006a13.465 13.465 0 0 1 6.087 7.492l.005.016.035.106v.01q.183.579.314 1.172l.003.012.023.109.007.017a13.465 13.465 0 0 1-1.525 9.529Z" fill="currentColor"/>
</svg>
