<svg xmlns="http://www.w3.org/2000/svg" width="50" height="50">
    <path d="M36.503 15.453a13.462 13.462 0 0 1 4.392 8.59l.002.016.011.111.002.012q.058.604.063 1.211v.141a13.462 13.462 0 0 1-3.47 9.002s-.005.005-.007.007l-.006.007-.015.016-.006.008-.007.007-.007.007-.014.016-.006.008-.015.015-.006.008-.007.007c-.138.154-.282.3-.428.444a1.001 1.001 0 0 1-1.41-1.422c.154-.154.306-.314.452-.476a11.513 11.513 0 0 0-.856-16.25 1 1 0 0 1 1.338-1.485Z" fill="currentColor"/>
    <path d="m32.933 19.548.338.693.014.029.085.174.009.02.014.029.01.019.009.019.009.018.01.02.014.029.004.01.014.029.01.019.009.018.01.02.008.018.01.019.009.019.01.02.009.019.014.028.009.02.005.01.014.028.009.019.014.028.005.01.028.081-.062.08.005.009.014.029.005.01a13.483 13.483 0 0 1-.192 9.187l-.003.009-.004.008-.007.018-.003.01-.004.008-.007.018-.003.008-.004.009-.004.008-.003.009-.009.018-.004.009-.002.008-.003.008-.003.008-.003.008-.002.008-.004.007-.003.007-.003.008-.003.007-.003.008-.005.002-.003.007-.003.007-.003.007-.005.002-.004.003-.005.002-.005.002-.005.003-.005.002-.003.007-.003.007-.005.003-.003.007-.004.008-.006.016-.004.008-.004.01-.007.016-.004.01-.004.01-.105.23a1 1 0 1 1-1.815-.84 11.479 11.479 0 0 0-.177-9.641 1 1 0 0 1 1.798-.877Z" fill="currentColor"/>
    <path d="M10.829 20.364v10.16h8.457l5.641 5.262V14.938l-5.641 5.426Z" fill="none" stroke="currentColor" stroke-linecap="round" stroke-linejoin="round" stroke-width="2"/>
</svg>
